<?xml version="1.0" encoding="utf-8"?>
<!-- Generator: Adobe Illustrator 26.0.1, SVG Export Plug-In . SVG Version: 6.00 Build 0)  -->
<svg version="1.1"
	 id="SVGRoot" xmlns:cc="http://creativecommons.org/ns#" xmlns:dc="http://purl.org/dc/elements/1.1/" xmlns:rdf="http://www.w3.org/1999/02/22-rdf-syntax-ns#" xmlns:svg="http://www.w3.org/2000/svg"
	 xmlns="http://www.w3.org/2000/svg" xmlns:xlink="http://www.w3.org/1999/xlink" x="0px" y="0px" viewBox="0 0 391 80"
	 style="enable-background:new 0 0 391 80;" xml:space="preserve">
<style type="text/css">
	.st0{fill:#FF0000;}
	.st1{fill:#FFFFFF;}
</style>
<g id="layer1">
	<g id="Layer_2_00000098210446073050621260000004663792383819969441_" transform="translate(0,0.36)">
		<g id="Layer_1-2">
			<path id="path6" class="st0" d="M112.7,12.3c-1.3-4.9-5.2-8.8-10.1-10.1C93.7-0.2,58-0.2,58-0.2s-35.7,0-44.5,2.4
				C8.6,3.5,4.7,7.4,3.4,12.3C1,21.2,1,39.7,1,39.7s0,18.6,2.4,27.5c1.3,4.9,5.2,8.8,10.1,10.1c8.9,2.4,44.6,2.4,44.6,2.4
				s35.7,0,44.6-2.4c4.9-1.3,8.8-5.2,10.1-10.1c2.4-8.9,2.4-27.5,2.4-27.5S115.1,21.2,112.7,12.3z"/>
			<path id="path8" class="st1" d="M46.6,56.8l29.6-17.1L46.6,22.6V56.8z"/>
			<path id="path10" class="st1" d="M165.7,25.1v2.8c0,13.8-6.1,21.9-19.5,21.9h-2v24.1h-10.9V5.5h13.9
				C160,5.5,165.7,10.9,165.7,25.1z M154.3,26.1c0-9.9-1.8-12.3-8-12.3h-2v27.8h1.9c5.9,0,8.2-4.2,8.2-13.5L154.3,26.1z M191.6,23.1
				l-0.6,13c-4.6-1-8.5-0.2-10.2,2.8v35.1H170v-50h8.6l1,10.8h0.4c1.1-7.9,4.8-11.9,9.5-11.9C190.2,22.9,190.9,23,191.6,23.1
				L191.6,23.1z M204.1,52.7v2.5c0,8.8,0.5,11.8,4.2,11.8c3.6,0,4.4-2.8,4.5-8.5l9.7,0.6c0.7,10.8-4.9,15.6-14.4,15.6
				c-11.6,0-15-7.6-15-21.4v-8.7c0-14.5,3.8-21.6,15.3-21.6c11.6,0,14.5,6,14.5,21.1v8.6H204.1z M204.1,42.4V46h8.2v-3.6
				c0-9.2-0.7-11.8-4.1-11.8C204.7,30.6,204.1,33.3,204.1,42.4L204.1,42.4z M278.9,36.1v37.8h-11.2V37c0-4.1-1.1-6.1-3.5-6.1
				c-2,0-3.8,1.1-5,3.3c0.1,0.7,0.1,1.4,0.1,2v37.8H248V37c0-4.1-1.1-6.1-3.5-6.1c-2,0-3.7,1.1-4.9,3.2v39.9h-11.3v-50h8.9l1,6.4
				h0.2c2.5-4.8,6.6-7.4,11.4-7.4c4.7,0,7.4,2.4,8.6,6.6c2.6-4.3,6.5-6.6,11-6.6C276.3,22.9,278.9,27.8,278.9,36.1z M284.6,11.1
				c0-5.4,2-6.9,6.1-6.9c4.2,0,6.1,1.8,6.1,6.9c0,5.5-1.9,6.9-6.1,6.9C286.5,18,284.6,16.7,284.6,11.1z M285.2,23.9H296v50h-10.8
				V23.9z M332.7,23.9v50h-8.8l-1-6.1h-0.2c-2.5,4.9-6.2,6.9-10.8,6.9c-6.7,0-9.7-4.2-9.7-13.5V23.9h11.3v36.7
				c0,4.4,0.9,6.2,3.2,6.2c2.1-0.1,3.9-1.3,4.8-3.2V23.9H332.7z M389.8,36.1v37.8h-11.3V37c0-4.1-1.1-6.1-3.5-6.1
				c-2,0-3.8,1.1-5,3.3c0.1,0.7,0.1,1.3,0.1,2v37.8h-11.3V37c0-4.1-1.1-6.1-3.5-6.1c-2,0-3.7,1.1-4.9,3.2v39.9h-11.3v-50h8.9l1,6.4
				h0.2c2.5-4.8,6.6-7.4,11.4-7.4c4.7,0,7.4,2.4,8.6,6.6c2.6-4.3,6.5-6.6,11-6.6C387.2,22.9,389.8,27.8,389.8,36.1z"/>
		</g>
	</g>
</g>
</svg>
